<svg xmlns="http://www.w3.org/2000/svg" width="24" height="24" viewBox="0 0 24 24">
  <g id="vuesax_outline_bank" data-name="vuesax/outline/bank" transform="translate(-428 -188)">
    <g id="bank">
      <path id="Vector" d="M19.75,10.4h-18A1.758,1.758,0,0,1,0,8.652V5.332a1.819,1.819,0,0,1,1.1-1.62l9-3.6a1.934,1.934,0,0,1,1.3,0l9,3.6a1.83,1.83,0,0,1,1.1,1.62v3.32A1.758,1.758,0,0,1,19.75,10.4Zm-9-8.91a.279.279,0,0,0-.1.01L1.66,5.1a.376.376,0,0,0-.16.23v3.32a.248.248,0,0,0,.25.25h18a.248.248,0,0,0,.25-.25V5.332a.341.341,0,0,0-.16-.23l-9-3.6A.222.222,0,0,0,10.75,1.493Z" transform="translate(429.25 189.348)" fill="#292d32"/>
      <path id="Vector-2" data-name="Vector" d="M20.75,5.5H.75A.755.755,0,0,1,0,4.75v-3A1.758,1.758,0,0,1,1.75,0h18A1.758,1.758,0,0,1,21.5,1.75v3A.755.755,0,0,1,20.75,5.5ZM1.5,4H20V1.75a.248.248,0,0,0-.25-.25h-18a.248.248,0,0,0-.25.25Z" transform="translate(429.25 205.25)" fill="#292d32"/>
      <path id="Vector-3" data-name="Vector" d="M.75,8.5A.755.755,0,0,1,0,7.75v-7A.755.755,0,0,1,.75,0,.755.755,0,0,1,1.5.75v7A.755.755,0,0,1,.75,8.5Z" transform="translate(431.25 198.25)" fill="#292d32"/>
      <path id="Vector-4" data-name="Vector" d="M.75,8.5A.755.755,0,0,1,0,7.75v-7A.755.755,0,0,1,.75,0,.755.755,0,0,1,1.5.75v7A.755.755,0,0,1,.75,8.5Z" transform="translate(435.25 198.25)" fill="#292d32"/>
      <path id="Vector-5" data-name="Vector" d="M.75,8.5A.755.755,0,0,1,0,7.75v-7A.755.755,0,0,1,.75,0,.755.755,0,0,1,1.5.75v7A.755.755,0,0,1,.75,8.5Z" transform="translate(439.25 198.25)" fill="#292d32"/>
      <path id="Vector-6" data-name="Vector" d="M.75,8.5A.755.755,0,0,1,0,7.75v-7A.755.755,0,0,1,.75,0,.755.755,0,0,1,1.5.75v7A.755.755,0,0,1,.75,8.5Z" transform="translate(443.25 198.25)" fill="#292d32"/>
      <path id="Vector-7" data-name="Vector" d="M.75,8.5A.755.755,0,0,1,0,7.75v-7A.755.755,0,0,1,.75,0,.755.755,0,0,1,1.5.75v7A.755.755,0,0,1,.75,8.5Z" transform="translate(447.25 198.25)" fill="#292d32"/>
      <path id="Vector-8" data-name="Vector" d="M22.75,1.5H.75A.755.755,0,0,1,0,.75.755.755,0,0,1,.75,0h22a.755.755,0,0,1,.75.75A.755.755,0,0,1,22.75,1.5Z" transform="translate(428.25 209.25)" fill="#292d32"/>
      <path id="Vector-9" data-name="Vector" d="M2.25,4.5A2.25,2.25,0,1,1,4.5,2.25,2.253,2.253,0,0,1,2.25,4.5Zm0-3A.75.75,0,1,0,3,2.25.755.755,0,0,0,2.25,1.5Z" transform="translate(437.75 192.75)" fill="#292d32"/>
      <path id="Vector-10" data-name="Vector" d="M0,0H24V24H0Z" transform="translate(428 188)" fill="none" opacity="0"/>
    </g>
  </g>
</svg>
